:SAMPLES-PER-SECOND 30
:FULLY-SPECIFIED
:DEGREES
156
root  59.5165 24.6627 3.46456 153.159 0.325592 -176.799
RightUpLeg  -52.0926 -9.311 1.46016
RightLeg  75.7773 -2.80147 -13.9163
RightFoot  2.961 0.404996 -3.06415
RightToes  0.000482159 0.542163 -0.142577
Spine  40.9548 -2.43002 7.96748
Spine1  0.618471 -0.674557 1.12729
HEad  -24.6555 4.67525 -3.79481
LeftShoulder1  10.4899 -15.2098 -48.942
LeftArm  -14.6533 6.14782 -24.9682
LeftForeArm  112.286 -80.9817 -61.8844
LeftHand  -0.25398 0.0180481 5.50724
RightShoulder  6.00906 10.5241 36.8321
RightArm  -11.4067 -8.34546 34.7753
RightForeArm  54.6867 76.9774 48.4945
RightHand  -0.421476 -2.66019 -17.291
LeftUpLeg  -53.3586 4.89067 5.52234
LeftLeg  77.2228 2.08303 12.1446
LeftFoot  2.50929 -0.154109 1.15711
LeftToes  1.06246e-005 4.65855e-005 -8.18503e-006
157
root  59.536 24.6752 3.45797 153.107 0.294907 -176.796
RightUpLeg  -52.0069 -9.57906 1.54459
RightLeg  75.7508 -2.78185 -13.8003
RightFoot  2.91958 0.433137 -3.3002
RightToes  0.000482159 0.542163 -0.142577
Spine  41.1425 -2.32056 7.93666
Spine1  0.617481 -0.550389 1.23279
HEad  -24.6268 4.68872 -3.53946
LeftShoulder1  10.5531 -15.3446 -48.8843
LeftArm  -12.9399 4.78572 -25.5428
LeftForeArm  108.137 -80.5678 -57.2153
LeftHand  -0.25398 0.0180481 5.50724
RightShoulder  6.02355 10.611 36.6752
RightArm  -10.7719 -7.40339 35.1158
RightForeArm  59.5878 77.4959 50.2724
RightHand  -0.10319 -4.74631 -14.5239
LeftUpLeg  -53.2691 5.12859 5.50929
LeftLeg  77.196 2.03857 11.8938
LeftFoot  2.42881 -0.158968 1.19445
LeftToes  1.06246e-005 4.65855e-005 -8.18503e-006
158
root  59.5478 24.6965 3.45743 153.042 0.146744 -176.715
RightUpLeg  -51.8828 -9.99672 1.61987
RightLeg  75.7008 -2.75396 -13.6243
RightFoot  2.83951 0.467109 -3.59589
RightToes  0.000482159 0.542163 -0.142577
Spine  41.4026 -2.32715 7.99817
Spine1  0.568764 -0.52835 1.337
HEad  -24.7198 4.88519 -3.45921
LeftShoulder1  10.6317 -15.4274 -49.0338
LeftArm  -11.4981 3.76175 -26.1053
LeftForeArm  104.357 -80.0894 -52.8662
LeftHand  -0.25398 0.0180481 5.50724
RightShoulder  6.05928 10.699 36.6623
RightArm  -10.3042 -6.84796 35.658
RightForeArm  64.8004 78.0366 52.4561
RightHand  0.0863081 -6.57563 -11.7628
LeftUpLeg  -53.1646 5.32711 5.4591
LeftLeg  77.0993 2.00333 11.6146
LeftFoot  2.43269 -0.182105 1.38572
LeftToes  1.06246e-005 4.65855e-005 -8.18503e-006
159
root  59.558 24.7095 3.45279 153.14 -0.0334778 -176.682
RightUpLeg  -51.9554 -10.4074 1.62724
RightLeg  75.6851 -2.72619 -13.4873
RightFoot  2.76925 0.486798 -3.7766
RightToes  0.000482159 0.542163 -0.142577
Spine  41.5232 -2.39684 8.04006
Spine1  0.515718 -0.56297 1.24918
HEad  -24.8833 5.17418 -3.32197
LeftShoulder1  10.6532 -15.4281 -49.1311
LeftArm  -10.3582 3.22225 -26.8515
LeftForeArm  100.152 -79.4867 -48.6155
LeftHand  -0.25398 0.0180481 5.50724
RightShoulder  6.12151 10.7799 36.8509
RightArm  -9.78087 -6.53666 36.2149
RightForeArm  69.6829 78.4767 54.2184
RightHand  0.141774 -7.96776 -8.51196
LeftUpLeg  -53.2639 5.59988 5.30854
LeftLeg  77.0155 1.96479 11.3366
LeftFoot  2.44758 -0.214067 1.64799
LeftToes  1.06246e-005 4.65855e-005 -8.18503e-006
160
root  59.5697 24.7081 3.43843 153.361 -0.205688 -176.774
RightUpLeg  -52.2263 -10.804 1.56062
RightLeg  75.7492 -2.67358 -13.329
RightFoot  2.71662 0.506411 -3.95265
RightToes  0.000482159 0.542163 -0.142577
Spine  41.4691 -2.44182 7.98871
Spine1  0.593136 -0.602777 1.05741
HEad  -25.0171 5.21678 -3.12792
LeftShoulder1  10.621 -15.3592 -49.1619
LeftArm  -8.97116 2.98539 -27.7572
LeftForeArm  94.7837 -78.5137 -43.2349
LeftHand  -0.25398 0.0180481 5.50724
RightShoulder  6.16209 10.827 36.989
RightArm  -8.99094 -6.34364 36.7127
RightForeArm  72.5813 78.6702 54.6036
RightHand  0.103149 -9.29658 -4.85946
LeftUpLeg  -53.5124 5.93189 5.04002
LeftLeg  76.99 1.91087 11.0452
LeftFoot  2.38586 -0.235264 1.83313
LeftToes  1.06246e-005 4.65855e-005 -8.18503e-006
